<svg id="svg" xmlns="http://www.w3.org/2000/svg" xmlns:xlink="http://www.w3.org/1999/xlink" width="400" height="279.4019933554817" viewBox="0, 0, 400,279.4019933554817" version="1.1"><g id="svgg"><path id="path0" d="M271.419 0.411 C 270.112 0.603,268.162 0.964,267.086 1.212 C 266.010 1.460,264.249 1.843,263.173 2.062 C 260.572 2.591,254.651 4.134,253.948 4.465 C 253.641 4.610,252.823 4.870,252.131 5.042 C 249.857 5.608,240.998 8.669,238.435 9.773 C 237.743 10.072,235.662 10.945,233.810 11.714 C 230.145 13.236,222.208 17.182,218.868 19.144 C 217.715 19.821,216.394 20.588,215.933 20.849 C 213.792 22.061,207.881 26.103,204.342 28.775 C 190.820 38.983,175.841 54.661,167.339 67.505 C 166.366 68.974,163.678 73.150,163.020 74.214 C 157.174 83.661,151.960 97.289,149.651 109.154 C 148.450 115.325,148.215 116.854,147.866 120.755 C 147.680 122.830,147.402 124.906,147.248 125.367 C 146.856 126.539,146.649 146.157,146.985 150.245 C 148.930 173.918,151.257 184.666,156.978 196.402 C 160.805 204.251,166.232 210.821,178.192 222.082 C 184.854 228.355,185.115 228.631,184.892 229.163 C 184.627 229.797,183.927 231.942,182.411 236.758 C 181.710 238.987,180.625 242.383,180.000 244.305 C 175.331 258.660,174.446 269.337,177.336 276.448 C 178.587 279.527,178.584 279.525,181.096 279.525 L 183.283 279.525 184.808 277.918 C 186.741 275.880,187.942 274.122,188.701 272.219 C 190.460 267.811,192.906 259.503,194.411 252.830 C 195.631 247.417,195.644 247.378,196.345 247.059 C 197.284 246.631,197.934 247.084,198.878 248.827 C 202.357 255.249,208.857 262.314,214.815 266.147 C 218.066 268.239,222.784 270.581,224.642 271.026 C 225.079 271.131,225.579 271.328,225.754 271.464 C 226.508 272.055,235.327 273.834,236.076 273.547 C 237.689 272.928,233.582 261.929,228.893 254.306 C 225.720 249.148,222.058 244.649,217.617 240.452 C 214.675 237.672,214.324 237.402,209.281 234.055 C 200.326 228.111,195.822 224.199,191.131 218.291 C 188.561 215.055,186.785 212.768,186.368 212.159 C 181.324 204.792,179.117 200.744,177.960 196.742 C 174.400 184.419,176.721 174.397,186.366 160.447 C 192.349 151.794,203.139 141.207,218.728 128.694 C 223.841 124.590,231.974 118.385,238.924 113.287 C 240.513 112.120,240.214 111.519,237.306 110.033 C 228.060 105.307,219.123 94.182,212.238 78.826 C 210.221 74.328,208.120 66.668,207.523 61.635 C 207.286 59.637,206.964 57.372,206.808 56.604 C 205.781 51.553,207.741 38.871,210.608 32.006 C 213.088 26.068,213.983 25.802,213.665 31.097 C 213.153 39.607,213.537 54.821,214.380 59.436 C 214.545 60.338,214.870 62.385,215.102 63.986 C 217.694 81.849,226.275 96.686,238.752 104.883 C 241.835 106.908,245.051 108.551,245.554 108.358 C 246.407 108.030,265.800 93.490,270.580 89.594 C 271.733 88.654,273.746 87.019,275.052 85.960 C 289.045 74.618,301.235 62.660,307.202 54.420 C 307.738 53.680,308.443 52.737,308.770 52.324 C 309.661 51.196,312.837 45.940,313.962 43.732 C 315.904 39.917,316.911 37.000,318.154 31.586 C 318.533 29.938,318.538 23.093,318.161 21.663 C 316.410 15.005,314.750 11.830,311.098 8.155 C 307.409 4.443,302.071 1.698,296.017 0.399 C 293.613 -0.116,274.942 -0.108,271.419 0.411 M201.957 3.275 C 200.679 3.451,197.799 4.215,197.484 4.461 C 197.331 4.581,196.702 4.838,196.087 5.032 C 189.138 7.222,175.257 18.478,164.198 30.887 C 145.346 52.044,138.065 64.574,131.387 87.354 C 131.071 88.431,130.569 90.507,130.271 91.966 C 129.973 93.425,129.605 95.122,129.454 95.737 C 129.166 96.914,128.561 101.810,127.997 107.536 C 126.722 120.493,130.322 133.690,137.355 141.838 C 141.430 146.560,141.999 146.216,141.999 139.030 C 141.999 122.781,143.829 108.985,147.706 96.017 C 148.119 94.633,148.625 93.124,148.829 92.662 C 149.033 92.201,149.359 91.321,149.553 90.706 C 149.747 90.091,150.248 88.833,150.666 87.911 C 151.084 86.988,151.517 85.942,151.629 85.585 C 152.016 84.349,156.698 75.318,158.465 72.397 C 160.848 68.460,164.669 62.745,166.502 60.377 C 171.910 53.392,176.987 47.619,182.203 42.523 C 188.128 36.736,196.379 29.748,201.719 25.996 C 206.044 22.957,211.457 19.439,214.955 17.394 C 219.829 14.545,219.850 14.515,218.706 12.252 C 215.064 5.051,209.740 2.198,201.957 3.275 M262.287 32.776 C 267.678 36.356,265.137 46.398,258.840 46.398 C 254.401 46.398,251.502 41.350,253.192 36.566 C 254.829 31.932,258.630 30.348,262.287 32.776 M203.440 92.136 C 203.805 92.788,201.229 101.798,199.700 105.221 C 199.488 105.693,198.752 107.526,198.064 109.294 C 197.375 111.062,196.290 113.704,195.652 115.164 C 195.014 116.625,194.202 118.512,193.848 119.357 C 193.494 120.203,192.739 121.964,192.171 123.270 C 191.603 124.577,190.451 127.470,189.612 129.700 C 184.437 143.443,181.911 147.907,177.903 150.397 C 173.476 153.146,166.764 148.115,157.443 135.063 C 149.395 123.792,152.216 117.515,170.294 106.468 C 171.619 105.659,178.304 102.027,178.469 102.027 C 178.527 102.027,180.250 101.222,182.299 100.238 C 186.385 98.276,188.527 97.320,194.410 94.834 C 196.562 93.924,199.078 92.855,200.000 92.458 C 201.970 91.609,203.087 91.505,203.440 92.136 M197.764 94.014 C 196.731 94.734,191.658 97.626,186.024 100.707 C 182.949 102.388,179.867 104.108,179.175 104.530 C 178.484 104.952,176.597 106.112,174.983 107.109 C 173.368 108.106,170.475 109.845,168.553 110.974 C 159.591 116.239,157.220 119.314,157.244 125.646 C 157.258 129.107,157.790 130.816,159.799 133.852 C 167.581 145.607,175.949 148.972,179.366 141.720 C 179.764 140.874,181.318 137.666,182.818 134.591 C 186.806 126.418,192.034 114.824,192.034 114.152 C 192.034 114.056,192.341 113.269,192.717 112.404 C 193.092 111.539,193.981 109.322,194.691 107.477 C 196.266 103.385,197.358 100.659,198.642 97.621 C 200.001 94.405,199.595 92.737,197.764 94.014 M229.404 124.039 C 228.853 124.462,227.700 125.304,226.843 125.910 C 225.303 126.998,225.272 127.048,224.407 129.823 C 223.926 131.369,222.597 135.465,221.455 138.924 C 219.070 146.146,217.971 150.030,217.026 154.577 C 216.658 156.345,216.203 158.484,216.014 159.329 C 213.630 169.978,219.005 176.140,228.851 174.048 C 235.108 172.718,238.747 164.369,236.757 155.909 C 236.602 155.253,236.090 151.761,235.617 148.148 C 233.949 135.382,233.681 133.459,233.384 132.075 C 233.219 131.307,232.843 129.127,232.547 127.231 C 231.847 122.736,231.527 122.410,229.404 124.039 " stroke="none" fill="#fc6444" fill-rule="evenodd"></path><path id="path1" d="M76.590 75.109 C 69.678 77.520,65.407 83.448,63.284 93.576 C 61.956 99.908,61.786 109.831,62.897 116.143 C 63.060 117.065,63.432 119.455,63.725 121.454 C 64.018 123.452,64.575 126.597,64.964 128.442 C 65.917 132.971,65.924 132.934,64.361 131.475 C 60.011 127.416,54.782 126.873,50.806 130.067 C 46.683 133.380,45.434 139.068,47.102 146.938 C 48.500 153.533,51.480 162.520,54.486 169.208 C 54.959 170.261,55.346 171.167,55.346 171.223 C 55.346 171.278,54.827 171.141,54.193 170.917 C 51.554 169.986,47.875 170.457,45.532 172.024 C 38.238 176.906,40.232 188.628,51.010 204.227 C 51.493 204.927,53.664 207.807,55.905 210.722 C 70.932 230.269,97.628 250.146,113.208 253.390 C 113.746 253.502,114.315 253.697,114.472 253.823 C 114.630 253.949,116.076 254.308,117.687 254.622 C 119.297 254.935,121.181 255.321,121.873 255.480 C 129.086 257.132,142.245 256.333,143.979 254.137 C 146.229 251.287,143.274 248.158,133.560 243.100 C 130.510 241.512,130.141 241.300,127.463 239.594 C 122.476 236.416,111.565 226.481,109.268 223.028 C 108.898 222.472,107.956 221.088,107.174 219.953 C 103.981 215.316,101.193 208.094,100.134 201.710 C 99.173 195.925,99.702 171.331,100.931 164.640 C 101.087 163.795,101.588 160.147,102.046 156.534 C 102.505 152.921,103.255 147.072,103.715 143.536 C 105.474 130.012,105.475 129.998,105.495 117.820 C 105.515 105.678,105.487 105.314,103.995 98.442 C 100.187 80.898,88.505 70.952,76.590 75.109 M74.602 87.980 C 74.309 88.743,73.490 92.082,72.873 95.038 C 72.444 97.089,72.483 113.550,72.924 117.261 C 73.447 121.656,74.029 128.558,74.031 130.398 L 74.032 132.075 73.346 129.700 C 72.677 127.382,72.082 124.255,71.155 118.186 C 70.393 113.193,70.515 104.237,71.421 98.752 C 72.138 94.405,74.219 87.212,74.759 87.212 C 74.836 87.212,74.765 87.558,74.602 87.980 M346.069 104.008 C 335.020 106.175,316.188 120.850,304.806 136.161 C 304.507 136.563,303.370 138.072,302.278 139.515 C 299.964 142.573,295.150 149.682,294.160 151.502 C 293.784 152.194,293.027 153.515,292.479 154.437 C 291.931 155.360,290.789 157.435,289.941 159.050 C 289.093 160.664,288.248 162.236,288.062 162.544 C 287.229 163.927,281.875 175.973,281.416 177.498 C 281.345 177.735,280.866 177.004,280.317 175.821 C 271.765 157.390,245.497 180.961,241.378 210.762 C 241.134 212.530,240.812 214.542,240.663 215.234 C 239.824 219.127,239.665 233.853,240.393 240.391 C 241.412 249.557,241.539 250.124,242.786 251.061 C 245.990 253.470,248.305 252.105,250.185 246.698 C 252.837 239.070,256.921 230.943,260.774 225.626 C 269.256 213.919,277.821 208.251,290.985 205.634 C 295.229 204.791,310.266 204.815,316.562 205.676 C 323.285 206.595,331.563 207.881,332.774 208.196 C 333.389 208.355,335.590 208.693,337.666 208.947 C 339.741 209.200,342.509 209.582,343.816 209.795 C 349.546 210.731,362.079 211.080,368.174 210.474 C 382.923 209.007,393.773 202.208,398.716 191.335 L 399.860 188.819 399.860 182.110 L 399.860 175.402 398.892 173.234 C 396.241 167.295,390.631 162.830,384.372 161.678 C 383.051 161.434,381.342 161.112,380.573 160.960 C 377.554 160.366,367.233 161.067,361.985 162.224 C 357.635 163.182,350.314 165.394,348.428 166.319 C 347.879 166.588,345.521 167.435,345.321 167.435 C 345.265 167.435,346.381 166.011,347.802 164.270 C 349.222 162.529,350.734 160.611,351.160 160.007 C 351.587 159.404,352.646 157.904,353.513 156.675 C 356.770 152.055,362.153 142.325,363.100 139.343 C 363.295 138.728,363.549 138.099,363.663 137.945 C 364.385 136.977,366.221 130.164,366.886 125.992 C 369.329 110.659,360.374 101.203,346.069 104.008 M356.314 111.455 L 357.039 111.931 356.164 112.288 C 355.683 112.484,354.063 112.781,352.565 112.948 C 351.066 113.116,349.737 113.316,349.612 113.393 C 349.486 113.470,348.414 113.766,347.229 114.049 C 346.043 114.333,344.382 114.887,343.536 115.281 C 340.451 116.719,340.392 115.681,343.466 114.046 C 349.090 111.054,354.146 110.035,356.314 111.455 M7.407 119.106 C 1.156 120.884,-1.561 126.744,0.961 133.010 C 2.796 137.570,10.792 142.935,19.759 145.623 C 29.150 148.439,33.311 151.254,38.367 158.211 C 39.540 159.825,41.074 161.930,41.776 162.889 C 45.895 168.509,47.866 161.578,44.557 153.110 C 42.836 148.707,40.515 144.416,37.212 139.533 C 36.347 138.255,35.451 136.928,35.220 136.586 C 26.555 123.729,15.525 116.797,7.407 119.106 M12.579 126.355 C 17.574 127.137,23.742 132.183,23.757 135.500 C 23.762 136.790,23.349 136.517,18.588 132.089 C 16.200 129.867,12.777 128.486,7.757 127.720 C 4.399 127.207,4.481 127.092,8.805 126.241 C 9.827 126.039,10.744 126.067,12.579 126.355 M321.174 133.892 C 321.174 134.200,321.056 134.451,320.911 134.451 C 320.536 134.451,320.271 133.943,320.475 133.613 C 320.767 133.140,321.174 133.303,321.174 133.892 M55.743 137.037 C 55.814 137.383,55.949 138.798,56.044 140.182 C 56.700 149.806,58.992 157.697,64.366 168.833 C 66.450 173.151,67.787 176.653,67.584 177.261 C 67.343 177.986,63.023 172.051,61.144 168.414 C 56.908 160.209,53.706 145.096,54.668 137.843 C 54.869 136.335,55.503 135.860,55.743 137.037 M29.861 140.973 C 29.937 141.369,29.812 141.464,29.308 141.392 C 28.946 141.341,28.614 141.072,28.559 140.788 C 28.484 140.392,28.609 140.297,29.113 140.369 C 29.474 140.420,29.807 140.689,29.861 140.973 M312.229 144.767 C 312.229 145.096,309.095 149.010,306.276 152.201 C 300.990 158.185,298.170 162.706,293.200 173.166 C 292.457 174.729,290.561 179.389,290.167 180.621 C 289.467 182.808,288.540 182.615,289.163 180.411 C 290.764 174.746,294.466 166.621,298.364 160.222 C 299.610 158.176,300.873 156.101,301.171 155.610 C 304.346 150.385,312.229 142.655,312.229 144.767 M79.395 153.493 C 79.807 155.587,80.288 157.713,80.463 158.217 C 80.639 158.721,80.783 159.642,80.783 160.264 L 80.783 161.394 80.111 160.484 C 78.244 157.953,76.612 149.387,78.037 149.596 C 78.584 149.676,78.722 150.072,79.395 153.493 M117.336 157.772 C 112.001 159.572,109.860 163.350,109.855 170.972 C 109.853 174.133,111.059 181.560,111.956 183.906 C 112.166 184.456,112.599 185.808,112.918 186.911 C 113.237 188.014,113.683 189.271,113.910 189.706 C 114.137 190.141,114.323 190.635,114.324 190.804 C 114.336 193.023,121.163 205.626,124.755 210.063 C 128.892 215.170,129.079 215.066,130.111 207.084 C 130.496 204.110,130.992 200.356,131.215 198.742 C 132.426 189.953,132.966 174.417,132.245 169.113 C 130.981 159.823,124.921 155.213,117.336 157.772 M20.581 163.839 C 12.461 164.882,4.668 170.058,1.143 176.751 L 0.000 178.922 -0.000 183.241 L -0.000 187.560 1.013 188.681 C 4.742 192.809,11.301 190.286,16.391 182.765 C 21.463 175.271,27.937 170.604,34.521 169.696 C 38.263 169.180,38.854 168.924,38.854 167.816 C 38.854 165.329,27.768 162.916,20.581 163.839 M123.147 165.054 C 127.608 167.668,130.595 176.828,128.497 181.462 C 127.350 183.995,126.838 182.762,126.617 176.939 C 126.366 170.327,124.730 166.788,121.104 165.013 C 119.679 164.316,119.447 164.084,119.812 163.719 C 120.021 163.511,121.571 164.131,123.147 165.054 M371.745 168.882 L 373.585 169.211 372.364 169.573 C 371.693 169.772,369.741 170.186,368.028 170.492 C 366.314 170.799,364.111 171.306,363.132 171.619 C 362.154 171.931,361.238 172.187,361.099 172.187 C 360.667 172.187,354.455 174.598,351.363 175.966 C 346.974 177.907,343.599 179.141,338.950 180.505 C 338.024 180.776,338.706 180.102,340.347 179.123 C 341.200 178.614,342.613 177.770,343.486 177.249 C 345.995 175.749,351.634 172.847,353.319 172.187 C 354.165 171.856,355.234 171.411,355.695 171.198 C 360.179 169.130,367.344 168.096,371.745 168.882 M8.386 175.420 C 8.386 176.016,7.973 176.767,6.502 178.847 L 5.252 180.615 4.587 179.990 L 3.922 179.365 5.218 177.803 C 7.274 175.324,8.386 174.488,8.386 175.420 M272.816 176.458 C 272.816 177.012,271.990 178.057,271.552 178.057 C 270.762 178.057,270.520 177.013,271.200 176.536 C 271.953 176.009,272.816 175.967,272.816 176.458 M263.903 182.180 C 263.755 182.449,262.430 183.906,260.958 185.416 C 256.469 190.021,255.025 192.980,250.014 207.827 C 247.655 214.819,246.937 216.632,246.528 216.632 C 246.152 216.632,246.207 215.993,246.816 213.277 C 250.411 197.249,253.819 189.021,258.727 184.524 C 260.896 182.536,264.635 180.843,263.903 182.180 M54.224 191.894 C 57.533 197.910,62.299 204.082,67.284 208.805 C 68.663 210.112,71.260 212.544,73.054 214.211 C 76.670 217.569,80.446 222.222,79.555 222.222 C 76.528 222.222,69.216 215.452,60.089 204.200 C 55.120 198.074,51.989 191.855,51.288 186.723 C 51.126 185.540,51.181 185.607,52.209 187.841 C 52.810 189.147,53.717 190.971,54.224 191.894 M128.302 188.679 C 128.302 188.987,128.192 189.238,128.057 189.238 C 127.690 189.238,127.161 188.516,127.373 188.304 C 127.755 187.921,128.302 188.142,128.302 188.679 M74.910 189.934 C 75.101 190.164,75.313 191.201,75.382 192.240 L 75.508 194.130 74.952 193.496 C 74.223 192.665,73.403 190.493,73.612 189.948 C 73.822 189.401,74.463 189.395,74.910 189.934 M21.663 207.794 C 10.175 209.995,0.481 220.103,0.912 229.429 C 1.268 237.125,5.850 242.085,15.514 245.234 C 21.876 247.308,24.378 247.876,33.683 249.357 C 47.684 251.587,50.362 252.139,58.421 254.453 C 62.254 255.554,70.410 258.554,71.140 259.131 C 71.294 259.253,72.049 259.605,72.817 259.914 C 74.221 260.478,79.483 263.315,81.988 264.859 C 85.358 266.936,90.455 270.847,93.484 273.680 C 96.275 276.292,98.631 275.663,97.835 272.518 C 96.575 267.544,94.707 263.599,91.160 258.421 C 90.317 257.191,88.693 254.801,87.550 253.110 C 79.042 240.520,64.267 225.067,53.669 217.677 C 49.103 214.493,45.460 212.436,40.950 210.497 C 38.607 209.489,37.523 209.134,33.543 208.069 C 31.362 207.486,24.144 207.319,21.663 207.794 M35.360 216.357 C 38.414 217.234,41.498 219.142,42.960 221.059 L 43.699 222.027 42.185 221.828 C 41.352 221.718,39.602 221.262,38.295 220.813 C 27.167 216.994,19.326 218.190,12.177 224.796 C 11.513 225.410,10.622 225.451,10.622 224.868 C 10.622 223.349,16.341 219.126,20.644 217.468 C 24.841 215.851,31.774 215.328,35.360 216.357 M311.251 223.649 C 310.021 223.779,308.386 224.026,307.617 224.199 C 306.848 224.372,305.024 224.752,303.564 225.043 C 294.372 226.875,281.994 232.110,270.580 238.992 C 269.581 239.595,268.323 240.332,267.785 240.631 C 265.553 241.870,251.072 251.583,250.105 252.489 C 247.424 255.002,249.552 257.187,253.556 256.033 C 256.619 255.150,262.370 253.877,266.806 253.100 C 268.959 252.723,271.726 252.226,272.956 251.995 C 285.127 249.706,298.577 251.271,315.982 257.002 C 318.584 257.859,320.830 258.560,320.971 258.560 C 321.113 258.560,321.626 258.742,322.110 258.965 C 323.256 259.491,327.012 260.606,332.075 261.924 C 355.805 268.102,370.020 258.104,361.552 241.192 C 355.308 228.721,333.937 221.268,311.251 223.649 M94.005 232.179 C 95.051 232.887,95.841 233.533,95.760 233.614 C 95.488 233.885,89.727 229.810,89.727 229.346 C 89.727 229.279,90.262 229.599,90.915 230.057 C 91.569 230.516,92.959 231.470,94.005 232.179 M319.916 230.895 C 320.377 231.031,321.839 231.461,323.164 231.851 C 328.330 233.371,324.674 233.857,315.233 232.904 C 311.227 232.501,303.716 233.409,299.268 234.836 C 296.469 235.734,295.178 235.834,295.178 235.153 C 295.178 234.331,295.621 234.075,298.175 233.423 C 299.439 233.100,300.810 232.708,301.221 232.552 C 302.215 232.174,309.348 230.858,311.810 230.598 C 314.054 230.361,318.678 230.530,319.916 230.895 M353.033 240.718 C 353.840 242.594,353.608 242.677,352.351 240.964 C 351.781 240.188,351.200 239.553,351.059 239.553 C 350.674 239.553,350.753 238.779,351.153 238.634 C 351.698 238.437,352.374 239.186,353.033 240.718 M112.346 241.407 C 112.626 241.654,110.789 241.472,110.412 241.215 C 110.112 241.011,110.310 240.983,111.111 241.117 C 111.726 241.220,112.282 241.350,112.346 241.407 " stroke="none" fill="#048494" fill-rule="evenodd"></path></g></svg>