<svg id="svg" xmlns="http://www.w3.org/2000/svg" xmlns:xlink="http://www.w3.org/1999/xlink" width="400" height="80.24316109422493" viewBox="0, 0, 400,80.24316109422493"><g id="svgg"><path id="path0" d="M147.936 0.779 C 147.310 1.406,147.121 1.957,146.977 3.591 C 146.384 10.279,144.106 20.004,139.809 34.195 C 129.462 68.364,129.262 70.082,134.963 75.720 C 138.977 79.690,142.313 80.614,150.413 79.999 C 167.170 78.724,178.369 73.275,179.234 65.976 C 179.741 61.695,178.289 60.975,172.101 62.437 C 157.662 65.848,146.784 66.916,146.558 64.945 C 146.313 62.804,147.454 58.800,152.851 42.857 C 158.504 26.162,161.276 14.516,160.666 10.033 C 159.870 4.179,150.991 -2.276,147.936 0.779 M388.370 1.123 C 387.334 1.391,386.947 3.046,385.269 14.380 C 382.724 31.563,380.972 40.681,378.641 48.860 C 377.538 52.730,377.517 52.755,376.839 50.988 C 373.864 43.234,372.735 40.070,369.767 31.155 C 362.617 9.683,361.246 6.923,355.967 3.386 C 351.583 0.449,349.569 1.083,349.100 5.548 C 348.521 11.064,346.933 19.066,342.360 39.514 C 336.660 64.997,335.905 69.012,336.442 71.007 C 337.440 74.711,342.687 80.239,345.208 80.242 C 347.864 80.245,350.362 72.052,356.239 44.073 C 357.100 39.977,357.913 36.511,358.048 36.370 C 358.542 35.853,363.926 50.249,369.608 67.281 C 372.777 76.781,373.286 77.626,376.934 79.443 C 381.520 81.729,384.142 78.610,388.428 65.769 C 394.451 47.724,401.018 15.097,399.865 8.950 C 399.246 5.649,391.433 0.329,388.370 1.123 M44.681 1.712 C 34.469 3.586,19.782 11.925,16.782 17.553 C 15.508 19.944,14.599 23.335,14.380 26.514 C 14.058 31.174,15.347 33.000,27.084 44.514 C 40.193 57.374,40.546 58.207,34.738 62.583 C 26.349 68.903,20.079 68.980,12.667 62.855 C 7.029 58.195,6.475 57.815,4.772 57.434 C -0.720 56.205,-1.769 64.740,3.099 71.050 C 15.196 86.730,48.305 81.044,53.034 62.474 C 55.245 53.793,51.014 45.658,38.906 35.308 C 32.996 30.257,29.787 27.003,29.787 26.062 C 29.787 23.499,39.161 19.104,50.452 16.374 C 59.484 14.190,60.461 13.236,58.644 8.378 C 56.401 2.385,52.130 0.345,44.681 1.712 M305.703 1.524 C 284.321 5.204,262.700 47.057,272.182 66.413 C 280.517 83.427,296.952 84.909,313.036 70.099 C 328.683 55.691,335.536 33.875,329.437 17.886 C 325.247 6.901,315.102 -0.093,305.703 1.524 M99.624 1.835 C 94.422 2.707,87.318 6.616,85.880 9.396 C 85.651 9.839,84.825 12.112,84.045 14.446 C 83.266 16.780,80.854 23.614,78.686 29.634 C 76.518 35.653,74.395 41.556,73.968 42.752 L 73.192 44.927 70.866 45.747 C 61.959 48.884,60.101 53.458,65.685 58.503 L 66.911 59.611 65.500 62.954 C 61.661 72.048,62.018 74.164,68.085 78.276 C 70.994 80.247,72.677 80.617,73.807 79.534 C 75.451 77.959,79.153 69.973,82.659 60.439 C 83.688 57.642,84.098 56.865,84.610 56.747 C 84.967 56.666,87.994 55.912,91.337 55.072 C 100.209 52.844,99.318 52.911,99.516 54.464 C 99.607 55.185,100.031 58.716,100.457 62.310 C 102.035 75.626,103.490 79.559,107.036 80.091 C 108.882 80.368,110.120 79.724,110.991 78.033 C 112.429 75.244,112.546 74.101,112.684 61.539 L 112.814 49.673 114.842 48.964 C 124.303 45.653,124.601 40.431,115.359 39.907 L 112.191 39.728 112.023 38.177 C 111.932 37.324,111.712 34.985,111.535 32.979 C 110.072 16.351,105.692 1.824,102.142 1.824 C 101.994 1.824,101.691 1.772,101.469 1.708 C 101.246 1.645,100.416 1.702,99.624 1.835 M203.133 1.827 C 201.920 2.315,201.518 3.398,201.202 7.026 C 200.723 12.519,198.910 21.897,195.890 34.498 C 187.790 68.307,187.835 67.922,191.296 73.765 C 194.355 78.930,197.229 81.191,198.772 79.648 C 201.235 77.184,207.760 53.527,209.905 39.278 C 210.189 37.394,210.456 35.889,210.498 35.935 C 210.541 35.981,211.420 39.301,212.451 43.313 C 216.339 58.443,217.602 60.247,224.296 60.231 C 229.024 60.220,231.899 57.662,241.611 44.833 C 244.015 41.657,246.158 38.867,246.373 38.635 C 246.588 38.402,246.288 39.702,245.706 41.522 C 241.685 54.102,239.938 65.436,241.148 71.098 C 242.223 76.132,244.983 80.243,247.285 80.243 C 250.495 80.243,251.362 78.289,255.178 62.449 C 256.466 57.107,258.881 47.743,260.545 41.641 C 267.726 15.319,268.049 11.936,263.809 7.453 C 258.127 1.445,254.434 4.052,237.985 25.684 C 232.302 33.158,227.035 39.818,226.808 39.817 C 225.591 39.813,219.537 20.344,218.834 14.170 C 218.414 10.483,217.129 8.916,211.182 4.838 C 206.881 1.889,204.858 1.132,203.133 1.827 M310.638 15.967 C 316.236 17.511,317.967 32.435,313.772 42.985 C 308.093 57.267,292.542 71.146,288.122 65.877 C 285.102 62.276,285.188 52.333,288.320 43.009 C 292.379 30.929,301.793 17.774,307.689 15.944 C 308.950 15.553,309.143 15.554,310.638 15.967 M97.253 30.521 C 97.769 36.016,98.153 40.538,98.108 40.569 C 97.945 40.681,89.512 41.571,89.419 41.487 C 89.367 41.440,90.871 36.679,92.761 30.907 C 94.652 25.135,96.224 20.439,96.256 20.471 C 96.288 20.503,96.737 25.026,97.253 30.521 " stroke="none" fill="#000000" fill-rule="evenodd"></path></g></svg>